<svg width="160" height="51" viewBox="0 0 160 51" fill="none" xmlns="http://www.w3.org/2000/svg">
<path d="M42.4931 51C40.4328 51 38.5599 50.6473 36.8742 49.9419C35.1885 49.2835 33.6901 48.3665 32.379 47.1909C31.1148 45.9682 30.0846 44.5809 29.2886 43.029C28.4458 41.3831 27.4391 39.0083 26.2685 35.9046C25.0979 32.8008 23.8336 29.1798 22.4757 25.0415H20.7198V48.5311L24.2316 49.2365V49.9419H0V49.2365L3.51183 48.5311V1.34025L0 0.705393V0H31.2553C35.329 0 38.7237 0.423235 41.4395 1.26971C44.1554 2.11618 46.1688 3.4094 47.4799 5.14937C48.8378 6.84232 49.5167 8.98202 49.5167 11.5685C49.5167 14.249 48.5334 16.5532 46.5668 18.4813C44.6002 20.3624 41.7205 21.7967 37.9277 22.7842C34.135 23.7718 29.5228 24.2656 24.0911 24.2656V24.971C26.7133 24.971 29.0545 25.1591 31.1148 25.5353C33.1751 25.8644 34.9778 26.3817 36.523 27.0871C38.115 27.7925 39.4261 28.686 40.4562 29.7676C41.5332 30.8492 42.3526 32.1189 42.9145 33.5768C43.9447 36.1162 44.8577 38.3499 45.6537 40.278C46.4966 42.1591 47.2458 43.6874 47.9013 44.8631C48.5569 45.9917 49.0719 46.7206 49.4465 47.0498C49.9616 47.473 50.4532 47.6846 50.9215 47.6846V48.39C50.0786 49.0954 49.1422 49.6362 48.112 50.0124C47.0819 50.3887 46.0752 50.6473 45.0919 50.7884C44.1085 50.9295 43.2423 51 42.4931 51ZM22.4055 23.278C24.0911 23.278 25.5895 23.0429 26.9006 22.5726C28.2117 22.0553 29.312 21.3264 30.2017 20.3859C31.0914 19.3983 31.7703 18.2227 32.2386 16.8589C32.7068 15.4481 32.9409 13.8257 32.9409 11.9917C32.9409 9.64039 32.6132 7.66528 31.9576 6.06639C31.3021 4.46749 30.3422 3.24481 29.0779 2.39834C27.8605 1.55187 26.3621 1.12863 24.5828 1.12863C23.8336 1.12863 23.1546 1.15214 22.5459 1.19917C21.984 1.19917 21.3753 1.26971 20.7198 1.41079V22.9253C21.0007 23.0664 21.2817 23.1604 21.5626 23.2075C21.8436 23.2545 22.1245 23.278 22.4055 23.278Z" fill="white"/>
<path d="M83.7922 0C87.5849 0 90.8158 0.423235 93.4848 1.26971C96.2006 2.06915 98.2609 3.26832 99.6656 4.86722C101.117 6.46611 101.843 8.46473 101.843 10.8631C101.843 13.1674 101.187 15.1189 99.8763 16.7178C98.6121 18.2697 96.9732 19.5159 94.9598 20.4564C92.9463 21.397 90.7924 22.0788 88.498 22.5021C86.2036 22.9253 84.0497 23.1369 82.0363 23.1369V23.8423C84.6116 23.8423 87.1635 24.0539 89.692 24.4772C92.2674 24.9004 94.6086 25.6058 96.7157 26.5934C98.8228 27.5339 100.508 28.8271 101.773 30.473C103.037 32.0719 103.669 34.047 103.669 36.3983C103.669 38.7497 103.201 40.7953 102.264 42.5353C101.328 44.2282 99.9466 45.639 98.1204 46.7676C96.3411 47.8492 94.1169 48.6487 91.4479 49.166C88.779 49.6833 85.712 49.9419 82.247 49.9419H52.6774V49.2365L56.1892 48.1784V1.76348L52.6774 0.705393V0H83.7922ZM79.7185 1.12863C78.0796 1.12863 76.7217 1.15214 75.6447 1.19917C74.6146 1.24619 73.8654 1.31673 73.3972 1.41079V48.5311C74.1932 48.8133 76.0427 48.9544 78.9459 48.9544C80.3038 48.9544 81.6383 48.5546 82.9493 47.7552C84.2604 46.9087 85.3374 45.4979 86.1802 43.5228C87.0231 41.5007 87.4445 38.7497 87.4445 35.2697C87.4445 31.1784 86.625 28.2863 84.9862 26.5934C83.3473 24.9004 80.9827 24.0539 77.8923 24.0539L72.9757 23.9129V23.1369L77.8923 22.9958C79.5312 22.9488 81.0061 22.5491 82.3172 21.7967C83.6751 20.9972 84.7521 19.7275 85.5481 17.9876C86.3441 16.2006 86.7421 13.8257 86.7421 10.8631C86.7421 7.90041 86.0866 5.5491 84.7755 3.80913C83.5112 2.02213 81.8255 1.12863 79.7185 1.12863Z" fill="white"/>
<path d="M119.018 50.6191C116.62 50.6191 114.493 50.1375 112.635 49.1744C110.777 48.1812 109.323 46.8118 108.274 45.0662C107.225 43.3206 106.701 41.3342 106.701 39.1071C106.701 37.1508 107.046 35.4051 107.735 33.8702C108.424 32.3353 109.428 31.0411 110.747 29.9877C112.065 28.9042 113.654 28.0916 115.511 27.5499C117.399 26.978 119.527 26.6921 121.895 26.6921C123.093 26.6921 124.277 26.8275 125.446 27.0984C126.614 27.3392 127.663 27.7305 128.592 28.2722C129.551 28.7838 130.3 29.446 130.84 30.2586C131.409 31.0411 131.694 31.9741 131.694 33.0576C131.694 33.9304 131.439 34.6678 130.93 35.2697C130.42 35.8716 129.716 36.3231 128.817 36.6241C127.918 36.925 126.884 37.0755 125.715 37.0755C123.947 37.0755 122.479 36.7294 121.31 36.0372C120.171 35.3449 119.602 34.3518 119.602 33.0576C119.602 32.1246 119.902 31.327 120.501 30.6649C121.13 30.0028 121.969 29.5664 123.018 29.3557C124.876 28.9343 125.805 28.528 125.805 28.1368C125.805 27.9562 125.685 27.7906 125.446 27.6402C125.236 27.4897 124.936 27.3693 124.547 27.279C124.187 27.1887 123.768 27.1436 123.288 27.1436C122.359 27.1436 121.52 27.4295 120.771 28.0013C120.022 28.5431 119.392 29.2955 118.883 30.2586C118.373 31.1916 117.984 32.245 117.714 33.4188C117.444 34.5925 117.31 35.8114 117.31 37.0755C117.31 38.7308 117.459 40.2056 117.759 41.4997C118.089 42.7939 118.553 43.8924 119.153 44.7954C119.752 45.6983 120.486 46.3905 121.355 46.872C122.224 47.3235 123.213 47.5492 124.322 47.5492C125.071 47.5492 125.88 47.3686 126.749 47.0075C127.618 46.6162 128.428 46.0745 129.177 45.3822C129.956 44.6599 130.54 43.8172 130.93 42.8541L131.559 43.2604C130.66 45.006 129.686 46.3754 128.637 47.3686C127.588 48.3618 126.495 49.0992 125.356 49.5807C124.247 50.0322 123.153 50.3181 122.074 50.4385C120.996 50.5589 119.977 50.6191 119.018 50.6191Z" fill="white"/>
<path d="M146.784 26.6921C148.942 26.6921 150.845 26.9931 152.493 27.595C154.141 28.197 155.52 29.0547 156.629 30.1683C157.737 31.2518 158.577 32.5309 159.146 34.0056C159.715 35.4804 160 37.0906 160 38.8362C160 40.3711 159.715 41.8459 159.146 43.2604C158.607 44.6449 157.782 45.8939 156.674 47.0075C155.565 48.121 154.186 49.0089 152.538 49.671C150.89 50.3031 148.972 50.6191 146.784 50.6191C144.507 50.6191 142.529 50.3031 140.851 49.671C139.173 49.0089 137.779 48.121 136.67 47.0075C135.591 45.8939 134.782 44.6449 134.243 43.2604C133.733 41.8459 133.479 40.3711 133.479 38.8362C133.479 37.0906 133.778 35.4804 134.378 34.0056C135.007 32.5309 135.891 31.2518 137.03 30.1683C138.169 29.0547 139.562 28.197 141.21 27.595C142.859 26.9931 144.717 26.6921 146.784 26.6921ZM146.784 27.1436C146.065 27.1436 145.526 27.7004 145.166 28.8139C144.806 29.9275 144.567 31.3722 144.447 33.1479C144.327 34.9236 144.267 36.8197 144.267 38.8362C144.267 40.2206 144.282 41.59 144.312 42.9444C144.372 44.2988 144.477 45.5177 144.627 46.6012C144.806 47.6846 145.061 48.5575 145.391 49.2196C145.75 49.8516 146.215 50.1676 146.784 50.1676C147.294 50.1676 147.698 49.8516 147.998 49.2196C148.328 48.5875 148.582 47.7298 148.762 46.6463C148.942 45.5628 149.062 44.3439 149.122 42.9895C149.182 41.6352 149.212 40.2507 149.212 38.8362C149.212 37.3313 149.182 35.8867 149.122 34.5022C149.092 33.0877 149.002 31.8387 148.852 30.7552C148.702 29.6416 148.462 28.7688 148.133 28.1368C147.803 27.4746 147.354 27.1436 146.784 27.1436Z" fill="white"/>
</svg>
