<svg width="156" height="35" viewBox="0 0 156 35" fill="none" xmlns="http://www.w3.org/2000/svg">
<path d="M66.4225 22.1023C66.4581 17.9449 66.9014 16.0904 64.3845 13.4002C61.8676 10.7101 55.9525 11.5202 55.3105 11.6884C54.1336 11.9941 50.1901 13.3646 49.4972 17.8889H54.1845C54.1845 17.8889 54.9539 15.0204 58.0312 15.3006C61.1085 15.5809 61.7403 16.6304 61.7403 17.8889C61.7403 19.1473 61.8982 19.9115 57.8936 20.1968C53.8024 20.4873 49.5227 21.654 49.3138 25.5006C49.1049 29.3473 51.1887 32.1902 55.3054 32.4399C60.2678 32.7354 62.0918 29.4339 62.0918 29.4339L62.372 31.6706L66.6416 31.7419C66.6416 31.7419 66.3868 26.2598 66.4225 22.1023ZM60.813 27.1667C59.4476 28.5983 58.0872 28.8786 56.895 28.8123C55.7079 28.741 54.0062 28.364 53.9909 26.1884C53.9807 24.4409 55.7028 23.6359 57.5574 23.3913C59.4119 23.1468 61.7861 22.729 61.7861 22.729C61.7861 22.729 62.1784 25.735 60.813 27.1667Z" fill="white"/>
<path d="M104.883 22.1023C104.918 17.9449 105.362 16.0903 102.845 13.4002C100.328 10.7101 94.4126 11.5202 93.7706 11.6883C92.5937 11.994 88.6502 13.3645 87.9573 17.8888H92.6446C92.6446 17.8888 93.414 15.0204 96.4913 15.3006C99.5686 15.5808 100.2 16.6304 100.2 17.8888C100.2 19.1473 100.358 19.9115 96.3537 20.1968C92.2625 20.4872 87.9828 21.6539 87.7739 25.5006C87.565 29.3473 89.6488 32.1902 93.7655 32.4399C98.7279 32.7354 100.552 29.4339 100.552 29.4339L100.832 31.6705L105.102 31.7419C105.097 31.7419 104.847 26.2597 104.883 22.1023ZM99.2731 27.1666C97.9077 28.5983 96.5473 28.8785 95.3551 28.8123C94.168 28.741 92.4663 28.3639 92.451 26.1884C92.4408 24.4409 94.1629 23.6359 96.0175 23.3913C97.872 23.1468 100.246 22.729 100.246 22.729C100.246 22.729 100.639 25.735 99.2731 27.1666Z" fill="white"/>
<path d="M148.342 22.1023C148.378 17.9449 148.821 16.0904 146.304 13.4002C143.788 10.7101 137.872 11.5202 137.23 11.6884C136.054 11.9941 132.11 13.3646 131.417 17.8889H136.105C136.105 17.8889 136.874 15.0204 139.951 15.3006C143.028 15.5809 143.66 16.6304 143.66 17.8889C143.66 19.1473 143.818 19.9115 139.814 20.1968C135.722 20.4873 131.443 21.654 131.234 25.5006C131.025 29.3473 133.109 32.1902 137.225 32.4399C142.188 32.7354 144.012 29.4339 144.012 29.4339L144.292 31.6706L148.562 31.7419C148.562 31.7419 148.312 26.2598 148.342 22.1023ZM142.733 27.1667C141.368 28.5983 140.007 28.8786 138.815 28.8123C137.628 28.741 135.926 28.364 135.911 26.1884C135.901 24.4409 137.623 23.6359 139.477 23.3913C141.332 23.1468 143.706 22.729 143.706 22.729C143.706 22.729 144.098 25.735 142.733 27.1667Z" fill="white"/>
<path d="M75.8068 2.0895H70.3094V31.4412H75.8068V2.0895Z" fill="white"/>
<path d="M84.4582 11.9125H80.1327V31.4413H84.4582V11.9125Z" fill="white"/>
<path d="M123.169 2.0896V14.2715C121.799 12.6004 119.745 11.5254 116.821 11.4438C111.512 11.291 107.772 16.4368 107.772 22.0158C107.772 28.2264 112.184 32.4603 116.928 32.4603C119.577 32.4603 121.707 31.2477 123.174 29.3371V31.7062H127.729V2.0845H123.169V2.0896ZM117.789 28.2723C114.599 28.2723 112.409 25.4344 112.409 21.9342C112.409 18.2761 114.819 15.5962 117.789 15.5962C121.141 15.5962 123.169 18.434 123.169 21.9342C123.169 25.4344 121.111 28.2723 117.789 28.2723Z" fill="white"/>
<path d="M82.2218 8.06072C83.8707 8.06072 85.2074 6.72402 85.2074 5.07511C85.2074 3.4262 83.8707 2.0895 82.2218 2.0895C80.5729 2.0895 79.2362 3.4262 79.2362 5.07511C79.2362 6.72402 80.5729 8.06072 82.2218 8.06072Z" fill="white"/>
<path d="M155.686 4.95295C155.686 6.77183 154.259 8.1984 152.399 8.1984C150.56 8.1984 149.093 6.77183 149.093 4.95295C149.093 3.17483 150.56 1.74316 152.399 1.74316C154.259 1.74826 155.686 3.17483 155.686 4.95295ZM149.913 4.95295C149.913 6.37953 150.968 7.51569 152.415 7.51569C153.821 7.51569 154.86 6.37952 154.86 4.97333C154.86 3.54676 153.821 2.39022 152.394 2.39022C150.973 2.39022 149.913 3.54676 149.913 4.95295ZM151.89 6.63427H151.146V3.42448C151.442 3.36334 151.849 3.32768 152.379 3.32768C152.985 3.32768 153.26 3.42449 153.495 3.56205C153.673 3.69961 153.806 3.95435 153.806 4.26514C153.806 4.61669 153.53 4.89181 153.143 5.009V5.04976C153.454 5.16694 153.632 5.4013 153.729 5.83437C153.826 6.32348 153.887 6.51709 153.963 6.63427H153.164C153.067 6.51709 153.006 6.22158 152.909 5.84965C152.848 5.49811 152.654 5.34016 152.241 5.34016H151.89V6.63427ZM151.91 4.81539H152.262C152.674 4.81539 153.006 4.67783 153.006 4.34666C153.006 4.05115 152.792 3.85755 152.323 3.85755C152.129 3.85755 151.992 3.87793 151.91 3.89831V4.81539Z" fill="white"/>
<path d="M19.7936 28.1397L33.4531 14.3784C33.4531 14.3784 36.9634 10.868 33.8861 6.71056C30.8088 2.55312 26.1317 5.45212 26.1317 5.45212L22.8811 2.28819C22.8811 2.28819 25.9992 0.0515319 29.1632 0.0515319C32.3271 0.0515319 36.617 1.50867 38.5683 5.9718C40.5197 10.4349 39.2205 14.3784 37.3558 16.5437C35.491 18.7091 19.7936 34.3147 19.7936 34.3147L2.47096 16.936C2.47096 16.936 -2.03802 11.994 1.12591 5.53873C4.28984 -0.916505 11.5705 0.0515319 11.5705 0.0515319C15.2082 0.0515319 18.8052 4.36691 19.3249 4.88659C19.8446 5.40627 27.9913 13.6396 27.9913 13.6396L24.9599 16.8036L13.7766 5.71706C13.5575 5.46741 9.87895 2.72126 6.37366 5.88519C3.39314 8.5753 4.20832 12.3404 5.68075 13.8995C7.15318 15.4636 19.7936 28.1397 19.7936 28.1397Z" fill="white"/>
</svg>
