<svg width="138" height="33" viewBox="0 0 138 33" fill="none" xmlns="http://www.w3.org/2000/svg">
<path d="M11.5007 32.4071C9.3345 32.4071 7.38209 31.9226 5.64345 30.9535C3.90481 29.9559 2.52245 28.5735 1.49637 26.8064C0.49879 25.0393 0 22.9586 0 20.5644C0 18.1417 0.49879 16.0468 1.49637 14.2796C2.52245 12.5125 3.90481 11.1444 5.64345 10.1753C7.38209 9.20624 9.3345 8.7217 11.5007 8.7217C13.4388 8.7217 15.1347 9.14924 16.5883 10.0043C18.0419 10.8594 19.1678 12.1562 19.9659 13.8949C20.7639 15.6335 21.163 17.8567 21.163 20.5644C21.163 23.2436 20.7782 25.4668 20.0086 27.2339C19.239 28.9726 18.1275 30.2694 16.6738 31.1245C15.2487 31.9796 13.5243 32.4071 11.5007 32.4071ZM12.655 26.9347C13.7381 26.9347 14.7214 26.6781 15.605 26.1651C16.4886 25.6521 17.1869 24.9253 17.6999 23.9847C18.2415 23.0156 18.5122 21.8755 18.5122 20.5644C18.5122 19.2248 18.2415 18.0847 17.6999 17.1441C17.1869 16.2036 16.4886 15.4767 15.605 14.9637C14.7214 14.4507 13.7381 14.1941 12.655 14.1941C11.5434 14.1941 10.5458 14.4507 9.66228 14.9637C8.77871 15.4767 8.06615 16.2036 7.5246 17.1441C7.01156 18.0847 6.75504 19.2248 6.75504 20.5644C6.75504 21.8755 7.01156 23.0156 7.5246 23.9847C8.06615 24.9253 8.77871 25.6521 9.66228 26.1651C10.5458 26.6781 11.5434 26.9347 12.655 26.9347ZM18.6833 32.0651V27.3622L18.8115 20.5217L18.384 13.7239V0.342028H25.0535V32.0651H18.6833Z" fill="white"/>
<path d="M42.6415 32.4071C40.0193 32.4071 37.7106 31.8941 35.7155 30.868C33.7488 29.8419 32.224 28.4453 31.1409 26.6781C30.0578 24.8825 29.5162 22.8446 29.5162 20.5644C29.5162 18.2557 30.0435 16.2178 31.0981 14.4507C32.1812 12.655 33.6491 11.2584 35.5017 10.2608C37.3544 9.23474 39.4493 8.7217 41.7865 8.7217C44.0382 8.7217 46.0618 9.20624 47.8575 10.1753C49.6816 11.1159 51.121 12.484 52.1756 14.2796C53.2301 16.0468 53.7574 18.1702 53.7574 20.6499C53.7574 20.9064 53.7432 21.2057 53.7147 21.5477C53.6862 21.8613 53.6577 22.1605 53.6292 22.4456H34.9459V18.555H50.1234L47.5582 19.7093C47.5582 18.5122 47.3159 17.4719 46.8314 16.5883C46.3468 15.7048 45.677 15.0207 44.822 14.5362C43.9669 14.0231 42.9693 13.7666 41.8292 13.7666C40.6891 13.7666 39.6773 14.0231 38.7937 14.5362C37.9387 15.0207 37.2689 15.719 36.7843 16.6311C36.2998 17.5147 36.0575 18.5692 36.0575 19.7948V20.8209C36.0575 22.075 36.3283 23.1866 36.8698 24.1557C37.4399 25.0963 38.2237 25.8231 39.2213 26.3361C40.2473 26.8207 41.4444 27.0629 42.8126 27.0629C44.0382 27.0629 45.107 26.8777 46.0191 26.5071C46.9596 26.1366 47.8147 25.5808 48.5843 24.8397L52.1328 28.6876C51.0782 29.8847 49.7529 30.811 48.1567 31.4665C46.5606 32.0936 44.7222 32.4071 42.6415 32.4071Z" fill="white"/>
<path d="M64.0223 32.0651L54.36 9.06373H61.2433L69.2809 28.8586H65.8607L74.1976 9.06373H80.6106L70.9056 32.0651H64.0223Z" fill="white"/>
<path d="M84.4768 32.4071C83.3367 32.4071 82.3534 32.0223 81.5268 31.2528C80.7287 30.4547 80.3297 29.4429 80.3297 28.2173C80.3297 26.9917 80.7287 26.0083 81.5268 25.2673C82.3534 24.4977 83.3367 24.1129 84.4768 24.1129C85.6454 24.1129 86.6287 24.4977 87.4268 25.2673C88.2248 26.0083 88.6239 26.9917 88.6239 28.2173C88.6239 29.4429 88.2248 30.4547 87.4268 31.2528C86.6287 32.0223 85.6454 32.4071 84.4768 32.4071Z" fill="white"/>
<path d="M93.956 32.0651V8.55069C93.956 5.95698 94.7256 3.89056 96.2647 2.35144C97.8038 0.783813 99.9985 0 102.849 0C103.818 0 104.744 0.0997584 105.628 0.299275C106.54 0.49879 107.309 0.812316 107.936 1.23985L106.184 6.07099C105.813 5.81447 105.4 5.61495 104.944 5.47244C104.488 5.32993 104.003 5.25867 103.49 5.25867C102.521 5.25867 101.766 5.5437 101.224 6.11374C100.711 6.65529 100.455 7.48185 100.455 8.59344V10.7311L100.626 13.5956V32.0651H93.956ZM90.4075 14.7072V9.57677H106.355V14.7072H90.4075Z" fill="white"/>
<circle cx="112.249" cy="28.1917" r="4.14174" fill="white"/>
<circle cx="122.935" cy="28.1917" r="4.14174" fill="white"/>
<circle cx="122.935" cy="6.81569" r="4.14174" fill="white"/>
<circle cx="133.626" cy="28.1917" r="4.14174" fill="white"/>
<circle cx="133.626" cy="17.5042" r="4.14174" fill="white"/>
</svg>
